<svg xmlns="http://www.w3.org/2000/svg" version="1.0" width="170.000000pt" height="170.000000pt"
    viewBox="0 0 170.000000 170.000000" preserveAspectRatio="xMidYMid meet">
    <g transform="translate(0.000000,170.000000) scale(0.100000,-0.100000)" fill="#000000"
        stroke="none">
        <path fill="#0691ca"
            d="M748 1680 c-127 -16 -288 -77 -358 -136 -19 -16 -55 -43 -78 -59 -87 -58 -213 -239 -245 -351 -21 -71 -9 -92 72 -124 92 -37 111 -63 111 -154 0 -91 29 -208 72 -289 67 -126 222 -252 359 -292 99 -28 138 14 114 121 -15 66 -19 70 -63 84 -56 18 -128 67 -171 116 -81 92 -110 205 -87 337 17 99 10 115 -69 145 -33 13 -70 27 -83 32 -33 14 -55 71 -41 107 15 39 164 183 229 220 30 17 91 44 135 59 69 24 96 28 200 28 133 1 218 -19 325 -75 30 -16 63 -29 73 -29 27 0 77 54 77 84 0 33 -27 57 -114 100 -129 64 -311 94 -458 76z" />
        <path fill="#0691ca"
            d="M777 1448 c-126 -15 -247 -72 -338 -160 -76 -72 -63 -121 40 -156 65 -22 82 -18 142 32 89 75 268 95 383 43 33 -15 82 -47 111 -71 76 -65 91 -65 175 6 104 87 157 68 200 -69 36 -118 44 -194 31 -300 -25 -207 -137 -383 -317 -498 -72 -46 -83 -97 -32 -145 31 -29 55 -25 123 18 394 250 507 787 247 1168 -84 123 -121 140 -184 86 -85 -73 -119 -78 -201 -33 -70 40 -189 78 -257 83 -30 2 -85 0 -123 -4z" />
        <path fill="#004883"
            d="M802 1089 c-185 -34 -257 -273 -122 -407 53 -53 87 -66 171 -67 67 0 81 3 124 30 69 43 108 108 113 190 5 77 -8 120 -53 173 -58 67 -145 97 -233 81z" />
        <path fill="#0691ca"
            d="M1294 1049 c-64 -50 -66 -55 -58 -146 7 -89 -5 -161 -38 -226 -43 -86 -152 -175 -241 -198 -25 -6 -56 -22 -68 -35 -22 -24 -22 -26 -10 -104 21 -127 4 -159 -84 -160 -122 0 -291 72 -402 174 -133 123 -203 270 -219 464 -6 72 -10 85 -32 102 -30 24 -70 26 -101 4 -23 -17 -24 -20 -18 -128 14 -295 189 -557 462 -691 132 -65 196 -79 355 -80 230 0 252 13 230 140 -16 93 -11 103 102 181 175 119 266 276 276 472 8 160 -28 262 -91 262 -13 0 -42 -14 -63 -31z" />
    </g>
</svg>